<svg width="17" height="17" viewBox="0 0 17 17" fill="none" xmlns="http://www.w3.org/2000/svg">
<g clip-path="url(#clip0_212_1407)">
<path d="M2.35194 12.8194C2.79084 12.1943 3.37379 11.684 4.05153 11.3318C4.72926 10.9795 5.48184 10.7956 6.24565 10.7956C7.00947 10.7956 7.76205 10.9795 8.43978 11.3318C9.11752 11.684 9.70047 12.1943 10.1394 12.8194C10.1938 12.9054 10.2651 12.9794 10.349 13.037C10.4329 13.0946 10.5276 13.1346 10.6274 13.1545C10.7272 13.1743 10.8301 13.1737 10.9296 13.1527C11.0292 13.1316 11.1234 13.0905 11.2066 13.032C11.2899 12.9734 11.3603 12.8985 11.4137 12.8118C11.4671 12.7252 11.5023 12.6286 11.5172 12.528C11.5322 12.4273 11.5265 12.3246 11.5006 12.2262C11.4746 12.1278 11.429 12.0357 11.3663 11.9555C10.7574 11.0899 9.93969 10.3935 8.99041 9.93003C8.97118 9.94682 8.95179 9.96344 8.93224 9.97989L8.82477 9.85215L2.35194 12.8194ZM2.35194 12.8194C2.28311 12.9182 2.19134 12.9989 2.08449 13.0545C1.97764 13.1101 1.85891 13.139 1.73846 13.1386C1.5836 13.1391 1.4325 13.091 1.30652 13.0009L2.35194 12.8194ZM15.8555 12.9717C15.8556 12.9717 15.8556 12.9717 15.8557 12.9717L15.8548 13.1386C16.0096 13.1391 16.1607 13.091 16.2867 13.0009C16.3678 12.9447 16.437 12.8728 16.4901 12.7896C16.5432 12.7064 16.5793 12.6135 16.5962 12.5162C16.6131 12.4189 16.6105 12.3193 16.5885 12.223C16.5665 12.1267 16.5257 12.0358 16.4682 11.9555L15.8555 12.9717ZM15.8555 12.9717C15.9753 12.9721 16.0922 12.9348 16.1896 12.8651L16.1916 12.8637L16.1916 12.8637C16.2545 12.8201 16.3082 12.7644 16.3494 12.6998C16.3906 12.6352 16.4186 12.5631 16.4317 12.4876C16.4448 12.4122 16.4428 12.3348 16.4257 12.2601C16.4087 12.1855 16.377 12.1149 16.3324 12.0526L16.3317 12.0516C15.7048 11.1604 14.8505 10.4535 13.8578 10.0042L13.6158 9.89468L13.8195 9.72414C14.4238 9.21836 14.8575 8.53864 15.0616 7.77753C15.2657 7.01643 15.2302 6.21091 14.9601 5.47066C14.69 4.73041 14.1983 4.09141 13.5519 3.64064C12.9056 3.18987 12.136 2.94925 11.348 2.95154L11.3473 2.95154C10.9966 2.95096 10.6476 2.99938 10.3103 3.0954L10.3073 3.09625L10.3073 3.09623C10.2324 3.11605 10.1621 3.15058 10.1007 3.19781C10.0393 3.24503 9.98783 3.304 9.94939 3.3713C9.91096 3.43859 9.8863 3.51286 9.87685 3.58977C9.86739 3.66668 9.87333 3.74471 9.89433 3.81931C9.91532 3.8939 9.95094 3.96358 9.99911 4.02428C10.0473 4.08498 10.1071 4.13549 10.1749 4.17286C10.2428 4.21024 10.3175 4.23374 10.3945 4.24199C10.4716 4.25025 10.5495 4.24309 10.6238 4.22094L10.6257 4.22037L10.6257 4.22038C10.8605 4.15339 11.1036 4.11963 11.3477 4.12007M15.8555 12.9717C15.7618 12.9711 15.6696 12.9483 15.5865 12.905C15.5034 12.8618 15.4318 12.7994 15.3776 12.723C14.9224 12.0772 14.3188 11.5501 13.6176 11.186C12.9163 10.8219 12.1379 10.6313 11.3477 10.6305H11.3476C11.1926 10.6305 11.044 10.5689 10.9344 10.4593C10.8248 10.3498 10.7633 10.2012 10.7633 10.0462C10.7633 9.89125 10.8248 9.74264 10.9344 9.63307C11.044 9.5235 11.1926 9.46194 11.3476 9.46194C12.0559 9.46194 12.7353 9.18054 13.2362 8.67964C13.7371 8.17874 14.0185 7.49938 14.0185 6.79101C14.0185 6.08263 13.7371 5.40327 13.2362 4.90237C12.7353 4.40152 12.0561 4.12012 11.3477 4.12007M11.3477 4.12007C11.3478 4.12007 11.3478 4.12007 11.3479 4.12007L11.3476 4.28701V4.12007C11.3476 4.12007 11.3477 4.12007 11.3477 4.12007ZM8.71731 9.7244L8.51454 9.89498L8.75595 10.0042C9.74863 10.4535 10.6029 11.1604 11.2298 12.0516L11.2296 12.0517L11.2347 12.0582C11.2834 12.1206 11.319 12.1923 11.3391 12.2688C11.3593 12.3453 11.3637 12.4252 11.3521 12.5035C11.3405 12.5818 11.3131 12.6569 11.2716 12.7243C11.23 12.7916 11.1753 12.8499 11.1105 12.8955C11.0458 12.941 10.9725 12.973 10.8951 12.9893C10.8176 13.0057 10.7377 13.0062 10.66 12.9907C10.5824 12.9753 10.5087 12.9442 10.4435 12.8994C10.3782 12.8546 10.3228 12.797 10.2804 12.7301L10.2806 12.73L10.276 12.7235C9.8217 12.0764 9.21828 11.5482 8.51677 11.1836C7.81526 10.819 7.03627 10.6287 6.24565 10.6287C5.45504 10.6287 4.67605 10.819 3.97454 11.1836C3.27303 11.5482 2.66961 12.0764 2.21531 12.7235L2.21494 12.724C2.16154 12.8007 2.09033 12.8633 2.00743 12.9064C1.92452 12.9496 1.83239 12.972 1.73894 12.9717L1.73791 12.9717C1.61805 12.9721 1.5011 12.9348 1.40359 12.8651L1.40279 12.8645C1.27639 12.7753 1.19055 12.6396 1.16408 12.4872C1.13761 12.3348 1.17265 12.1781 1.26151 12.0516C1.88845 11.1604 2.74268 10.4535 3.73536 10.0042L3.97677 9.89498L3.774 9.7244C3.17136 9.21743 2.73919 8.53742 2.53608 7.77654C2.33297 7.01566 2.36875 6.21072 2.63856 5.47086C2.90838 4.73101 3.39917 4.09201 4.04442 3.64051C4.68966 3.18901 5.45813 2.94684 6.24565 2.94684C7.03318 2.94684 7.80165 3.18901 8.44689 3.64051C9.09214 4.09201 9.58293 4.73101 9.85275 5.47086C10.1226 6.21072 10.1583 7.01566 9.95523 7.77654C9.75212 8.53742 9.31995 9.21743 8.71731 9.7244ZM4.02486 5.30712C3.73137 5.74635 3.57472 6.26275 3.57472 6.79101C3.57472 7.49938 3.85612 8.17874 4.35702 8.67964C4.85792 9.18054 5.53728 9.46194 6.24565 9.46194C6.77392 9.46194 7.29031 9.30529 7.72955 9.01181C8.16878 8.71832 8.51112 8.30118 8.71327 7.81313C8.91543 7.32508 8.96832 6.78804 8.86527 6.26993C8.76221 5.75182 8.50783 5.27591 8.13429 4.90237C7.76075 4.52884 7.28484 4.27445 6.76673 4.1714C6.24862 4.06834 5.71158 4.12123 5.22353 4.32339C4.73548 4.52554 4.31834 4.86788 4.02486 5.30712Z" fill="#4CAF4F" stroke="#4CAF4F" stroke-width="0.333867"/>
</g>
<defs>
<clipPath id="clip0_212_1407">
<rect width="16.0256" height="16.0256" fill="white" transform="translate(0.736816 0.0301514)"/>
</clipPath>
</defs>
</svg>
