<svg width="17" height="17" viewBox="0 0 17 17" fill="none" xmlns="http://www.w3.org/2000/svg">
<mask id="path-1-inside-1_212_1413" fill="white">
<path d="M10.3409 7.92429C10.2605 7.92429 10.1858 7.90219 10.1195 7.86663V7.86758C10.1195 7.99406 10.0704 8.11284 9.98116 8.2018C9.89196 8.291 9.77327 8.34016 9.64694 8.34016C9.56537 8.34016 9.48978 8.31751 9.42276 8.28101C9.41599 8.39672 9.36974 8.50487 9.28723 8.58747C9.19803 8.67667 9.07934 8.72583 8.95292 8.72583C8.70176 8.72583 8.4978 8.5284 8.4831 8.28093C8.40538 8.32294 8.31752 8.34496 8.2269 8.33914C7.97982 8.32294 7.78633 8.10946 7.78633 7.85302V5.72741L7.54429 6.14674C7.4521 6.30712 7.27954 6.4067 7.09374 6.4067C7.0032 6.4067 6.91377 6.38295 6.83456 6.33756C6.73592 6.28038 6.66537 6.18858 6.63603 6.07877C6.60653 5.96888 6.62179 5.85396 6.67882 5.75547C6.67889 5.75547 7.47074 4.38422 7.51905 4.29999C7.52479 4.28732 7.54116 4.25059 7.55508 4.21928C7.56837 4.18939 7.57978 4.15872 7.59071 4.12788C7.82951 3.45371 8.4208 3.03493 9.13391 3.03493C10.06 3.03493 10.8133 3.85187 10.8133 4.85604L10.8134 7.45163C10.8134 7.57796 10.7643 7.69666 10.6752 7.78594C10.586 7.87514 10.4673 7.9243 10.3408 7.9243L10.3409 7.92429ZM9.13392 3.28605C8.52117 3.28605 8.03278 3.63215 7.8274 4.21186C7.81427 4.24867 7.80058 4.28549 7.78461 4.32136C7.73828 4.42526 7.73828 4.42526 7.72523 4.44021L7.7235 4.43871C7.65884 4.56071 7.46676 4.89335 6.89625 5.88115C6.87281 5.92166 6.86659 5.9687 6.87855 6.01369C6.89066 6.05868 6.91969 6.0966 6.95988 6.1198C7.08463 6.19146 7.25549 6.14521 7.32659 6.02132L7.80318 5.19619C7.83166 5.14702 7.88923 5.12288 7.94445 5.13782C7.99935 5.15253 8.0375 5.20232 8.0375 5.25911V7.8531C8.0375 7.97549 8.12985 8.08112 8.24336 8.08859C8.3088 8.09206 8.36984 8.07011 8.4157 8.02433C8.45739 7.98264 8.48035 7.92711 8.48035 7.86772V6.17122C8.48035 6.10185 8.5366 6.0456 8.60597 6.0456C8.67535 6.0456 8.73159 6.10177 8.73159 6.17122L8.73151 8.25334C8.73151 8.37541 8.83086 8.47476 8.95293 8.47476C9.01224 8.47476 9.06793 8.45179 9.1097 8.4101C9.15139 8.36833 9.17436 8.31265 9.17436 8.25334V6.17122C9.17436 6.10184 9.23052 6.0456 9.29997 6.0456C9.36935 6.0456 9.42559 6.10177 9.42559 6.17122L9.42551 7.84821V7.86772C9.42551 7.98972 9.52486 8.08906 9.64701 8.08906C9.70624 8.08906 9.76178 8.06601 9.80378 8.02416C9.84547 7.98255 9.86844 7.92702 9.86844 7.86763V6.17113C9.86844 6.10176 9.9246 6.04551 9.99405 6.04551C10.0634 6.04551 10.1197 6.10168 10.1197 6.17113L10.1195 7.45169C10.1195 7.57385 10.2189 7.67319 10.3409 7.67319C10.4002 7.67319 10.4558 7.65015 10.4975 7.60854C10.5393 7.56669 10.5622 7.511 10.5622 7.45169L10.5623 4.8561C10.5623 3.99047 9.92153 3.28607 9.13391 3.28607L9.13392 3.28605Z"/>
</mask>
<path d="M10.3409 7.92429C10.2605 7.92429 10.1858 7.90219 10.1195 7.86663V7.86758C10.1195 7.99406 10.0704 8.11284 9.98116 8.2018C9.89196 8.291 9.77327 8.34016 9.64694 8.34016C9.56537 8.34016 9.48978 8.31751 9.42276 8.28101C9.41599 8.39672 9.36974 8.50487 9.28723 8.58747C9.19803 8.67667 9.07934 8.72583 8.95292 8.72583C8.70176 8.72583 8.4978 8.5284 8.4831 8.28093C8.40538 8.32294 8.31752 8.34496 8.2269 8.33914C7.97982 8.32294 7.78633 8.10946 7.78633 7.85302V5.72741L7.54429 6.14674C7.4521 6.30712 7.27954 6.4067 7.09374 6.4067C7.0032 6.4067 6.91377 6.38295 6.83456 6.33756C6.73592 6.28038 6.66537 6.18858 6.63603 6.07877C6.60653 5.96888 6.62179 5.85396 6.67882 5.75547C6.67889 5.75547 7.47074 4.38422 7.51905 4.29999C7.52479 4.28732 7.54116 4.25059 7.55508 4.21928C7.56837 4.18939 7.57978 4.15872 7.59071 4.12788C7.82951 3.45371 8.4208 3.03493 9.13391 3.03493C10.06 3.03493 10.8133 3.85187 10.8133 4.85604L10.8134 7.45163C10.8134 7.57796 10.7643 7.69666 10.6752 7.78594C10.586 7.87514 10.4673 7.9243 10.3408 7.9243L10.3409 7.92429ZM9.13392 3.28605C8.52117 3.28605 8.03278 3.63215 7.8274 4.21186C7.81427 4.24867 7.80058 4.28549 7.78461 4.32136C7.73828 4.42526 7.73828 4.42526 7.72523 4.44021L7.7235 4.43871C7.65884 4.56071 7.46676 4.89335 6.89625 5.88115C6.87281 5.92166 6.86659 5.9687 6.87855 6.01369C6.89066 6.05868 6.91969 6.0966 6.95988 6.1198C7.08463 6.19146 7.25549 6.14521 7.32659 6.02132L7.80318 5.19619C7.83166 5.14702 7.88923 5.12288 7.94445 5.13782C7.99935 5.15253 8.0375 5.20232 8.0375 5.25911V7.8531C8.0375 7.97549 8.12985 8.08112 8.24336 8.08859C8.3088 8.09206 8.36984 8.07011 8.4157 8.02433C8.45739 7.98264 8.48035 7.92711 8.48035 7.86772V6.17122C8.48035 6.10185 8.5366 6.0456 8.60597 6.0456C8.67535 6.0456 8.73159 6.10177 8.73159 6.17122L8.73151 8.25334C8.73151 8.37541 8.83086 8.47476 8.95293 8.47476C9.01224 8.47476 9.06793 8.45179 9.1097 8.4101C9.15139 8.36833 9.17436 8.31265 9.17436 8.25334V6.17122C9.17436 6.10184 9.23052 6.0456 9.29997 6.0456C9.36935 6.0456 9.42559 6.10177 9.42559 6.17122L9.42551 7.84821V7.86772C9.42551 7.98972 9.52486 8.08906 9.64701 8.08906C9.70624 8.08906 9.76178 8.06601 9.80378 8.02416C9.84547 7.98255 9.86844 7.92702 9.86844 7.86763V6.17113C9.86844 6.10176 9.9246 6.04551 9.99405 6.04551C10.0634 6.04551 10.1197 6.10168 10.1197 6.17113L10.1195 7.45169C10.1195 7.57385 10.2189 7.67319 10.3409 7.67319C10.4002 7.67319 10.4558 7.65015 10.4975 7.60854C10.5393 7.56669 10.5622 7.511 10.5622 7.45169L10.5623 4.8561C10.5623 3.99047 9.92153 3.28607 9.13391 3.28607L9.13392 3.28605Z" fill="#4CAF4F"/>
<path d="M10.3409 7.92429V7.47914H11.9136L10.5742 8.30341L10.3409 7.92429ZM10.1195 7.86663H9.67437V7.12283L10.3299 7.47432L10.1195 7.86663ZM9.98116 8.2018L9.66639 7.88703L9.66681 7.88662L9.98116 8.2018ZM9.42276 8.28101L8.97836 8.25503L9.01932 7.55443L9.63565 7.89007L9.42276 8.28101ZM9.28723 8.58747L9.60217 8.90208L9.602 8.90224L9.28723 8.58747ZM8.4831 8.28093L8.27144 7.88932L8.88604 7.55714L8.92747 8.25454L8.4831 8.28093ZM8.2269 8.33914L8.19836 8.78338L8.19777 8.78334L8.2269 8.33914ZM7.78633 5.72741L7.40079 5.50488L8.23149 4.06574V5.72741H7.78633ZM7.54429 6.14674L7.15835 5.9249L7.15875 5.9242L7.54429 6.14674ZM6.83456 6.33756L6.61324 6.72381L6.61129 6.72268L6.83456 6.33756ZM6.63603 6.07877L7.06596 5.96336L7.0661 5.96386L6.63603 6.07877ZM6.67882 5.75547L6.29358 5.53241L6.42218 5.31032H6.67882V5.75547ZM7.51905 4.29999L7.92448 4.48381L7.91574 4.50309L7.90521 4.52145L7.51905 4.29999ZM7.55508 4.21928L7.14833 4.0384L7.14833 4.03839L7.55508 4.21928ZM7.59071 4.12788L8.01032 4.27651L8.01028 4.27663L7.59071 4.12788ZM10.8133 4.85604L10.3682 4.85605V4.85604H10.8133ZM10.8134 7.45163L11.2586 7.45162V7.45163H10.8134ZM10.6752 7.78594L10.9903 8.10042L10.99 8.10071L10.6752 7.78594ZM10.3408 7.9243V8.36946H8.76809L10.1075 7.54518L10.3408 7.9243ZM9.13392 3.28605V2.84089H9.72408L9.56195 3.40834L9.13392 3.28605ZM7.8274 4.21186L8.24701 4.36051L8.24666 4.36147L7.8274 4.21186ZM7.78461 4.32136L8.19129 4.5024L8.19119 4.50264L7.78461 4.32136ZM7.72523 4.44021L8.06045 4.7331L7.76923 5.0664L7.43426 4.77711L7.72523 4.44021ZM7.7235 4.43871L7.33016 4.23026L7.59173 3.73672L8.01446 4.10181L7.7235 4.43871ZM6.89625 5.88115L7.28173 6.10379L7.28154 6.10411L6.89625 5.88115ZM6.87855 6.01369L6.4487 6.12942L6.44833 6.12803L6.87855 6.01369ZM6.95988 6.1198L6.73816 6.50581L6.73733 6.50533L6.95988 6.1198ZM7.32659 6.02132L6.9405 5.79973L6.94111 5.79867L7.32659 6.02132ZM7.80318 5.19619L7.4177 4.97354L7.41798 4.97307L7.80318 5.19619ZM7.94445 5.13782L7.82925 5.56782L7.82815 5.56752L7.94445 5.13782ZM8.24336 8.08859L8.21985 8.53317L8.21412 8.53279L8.24336 8.08859ZM8.4157 8.02433L8.73047 8.3391L8.7302 8.33938L8.4157 8.02433ZM8.73159 6.17122H9.17675V6.17124L8.73159 6.17122ZM8.73151 8.25334H8.28636V8.25332L8.73151 8.25334ZM9.1097 8.4101L9.42477 8.72458L9.42417 8.72518L9.1097 8.4101ZM9.42559 6.17122H9.87075V6.17124L9.42559 6.17122ZM9.42551 7.84821H8.98036V7.84819L9.42551 7.84821ZM9.80378 8.02416L10.1183 8.33923L10.118 8.33952L9.80378 8.02416ZM10.1197 6.17113H10.5648V6.17119L10.1197 6.17113ZM10.1195 7.45169H9.67436L9.67436 7.45164L10.1195 7.45169ZM10.4975 7.60854L10.8122 7.92331L10.8119 7.92361L10.4975 7.60854ZM10.5622 7.45169H10.117V7.45168L10.5622 7.45169ZM10.5623 4.8561H11.0074V4.85611L10.5623 4.8561ZM9.13391 3.28607V3.73123H8.54376L8.70589 3.16378L9.13391 3.28607ZM10.3409 8.36945C10.1769 8.36945 10.0306 8.32407 9.90916 8.25895L10.3299 7.47432C10.3356 7.4774 10.3393 7.47858 10.3407 7.47897C10.342 7.47931 10.3418 7.47914 10.3409 7.47914V8.36945ZM10.5647 7.86663V7.86758H9.67437V7.86663H10.5647ZM10.5647 7.86758C10.5647 8.11175 10.4689 8.34411 10.2955 8.51699L9.66681 7.88662C9.66999 7.88344 9.67156 7.88072 9.67248 7.8785C9.67341 7.87627 9.67437 7.87284 9.67437 7.86758H10.5647ZM10.2959 8.51658C10.1232 8.68933 9.89123 8.78532 9.64694 8.78532V7.89501C9.65204 7.89501 9.65541 7.89408 9.65769 7.89314C9.65997 7.89219 9.66291 7.89051 9.66639 7.88703L10.2959 8.51658ZM9.64694 8.78532C9.48088 8.78532 9.33271 8.73886 9.20986 8.67196L9.63565 7.89007C9.64145 7.89322 9.64512 7.89442 9.64658 7.89482C9.64783 7.89516 9.64773 7.89501 9.64694 7.89501V8.78532ZM9.86715 8.30699C9.85434 8.5261 9.76546 8.73861 9.60217 8.90208L8.97229 8.27286C8.97394 8.27121 8.9749 8.26975 8.97571 8.26791C8.97658 8.26591 8.97796 8.26183 8.97836 8.25503L9.86715 8.30699ZM9.602 8.90224C9.42922 9.07502 9.19726 9.17099 8.95292 9.17099V8.28067C8.9581 8.28067 8.96149 8.27973 8.96377 8.27879C8.96604 8.27785 8.96898 8.27617 8.97246 8.2727L9.602 8.90224ZM8.95292 9.17099C8.46147 9.17099 8.06711 8.78527 8.03872 8.30733L8.92747 8.25454C8.92792 8.26211 8.93102 8.26875 8.9365 8.27398C8.93917 8.27653 8.94188 8.27817 8.94424 8.27913C8.94631 8.27998 8.94894 8.28067 8.95292 8.28067V9.17099ZM8.69475 8.67255C8.55097 8.75027 8.38048 8.79508 8.19836 8.78338L8.25544 7.8949C8.25545 7.8949 8.2564 7.89499 8.25874 7.89445C8.26125 7.89386 8.26561 7.89247 8.27144 7.88932L8.69475 8.67255ZM8.19777 8.78334C7.7035 8.75093 7.34118 8.33059 7.34118 7.85302H8.23149C8.23149 7.86808 8.23695 7.87967 8.2438 7.88723C8.25048 7.89459 8.25501 7.89487 8.25603 7.89494L8.19777 8.78334ZM7.34118 7.85302V5.72741H8.23149V7.85302H7.34118ZM8.17187 5.94995L7.92983 6.36928L7.15875 5.9242L7.40079 5.50488L8.17187 5.94995ZM7.93023 6.36857C7.75822 6.66783 7.43804 6.85186 7.09374 6.85186V5.96154C7.12103 5.96154 7.14599 5.94641 7.15835 5.9249L7.93023 6.36857ZM7.09374 6.85186C6.9254 6.85186 6.75969 6.80771 6.61324 6.7238L7.05588 5.95132C7.06785 5.95818 7.08101 5.96154 7.09374 5.96154V6.85186ZM6.61129 6.72268C6.41143 6.60681 6.26596 6.41825 6.20596 6.19367L7.0661 5.96386C7.06569 5.96234 7.06458 5.95965 7.06244 5.95686C7.06031 5.95409 7.05834 5.95274 7.05783 5.95244L6.61129 6.72268ZM6.20609 6.19417C6.14585 5.96976 6.17739 5.73308 6.29358 5.53241L7.06405 5.97854C7.06469 5.97744 7.0658 5.9749 7.06628 5.9713C7.06675 5.9677 7.06635 5.96482 7.06596 5.96336L6.20609 6.19417ZM6.67882 5.31032C6.46045 5.36756 6.297 5.5266 6.29578 5.52865C6.29538 5.52934 6.29477 5.53037 6.29458 5.5307C6.29447 5.53089 6.29428 5.53121 6.29421 5.53132C6.29417 5.53139 6.29409 5.53153 6.29407 5.53156C6.29401 5.53167 6.29403 5.53164 6.2942 5.53135C6.2945 5.53083 6.29501 5.52995 6.29575 5.52867C6.29721 5.52614 6.29941 5.52234 6.30231 5.51732C6.3081 5.50729 6.31662 5.49255 6.32749 5.47372C6.34924 5.43608 6.38036 5.38221 6.41785 5.31727C6.49285 5.18742 6.59334 5.01339 6.69534 4.83673C6.89968 4.48282 7.10917 4.11989 7.1329 4.07852L7.90521 4.52145C7.88063 4.56431 7.67004 4.92913 7.46636 5.2819C7.36435 5.45858 7.26384 5.63264 7.18883 5.76252C7.15133 5.82746 7.12019 5.88137 7.09843 5.91905C7.08755 5.93789 7.079 5.95269 7.07316 5.96278C7.07025 5.96783 7.06799 5.97174 7.06645 5.9744C7.06568 5.97572 7.06505 5.97681 7.06459 5.97761C7.06438 5.97798 7.06411 5.97844 7.06385 5.97888C7.06376 5.97905 7.06347 5.97954 7.06313 5.98012C7.06291 5.98049 7.06229 5.98156 7.06187 5.98226C7.06063 5.98434 6.89718 6.14339 6.67882 6.20063V5.31032ZM7.11363 4.11616C7.11853 4.10535 7.13405 4.07051 7.14833 4.0384L7.96183 4.40017C7.94826 4.43067 7.93106 4.46929 7.92448 4.48381L7.11363 4.11616ZM7.14833 4.03839C7.15452 4.02448 7.16137 4.0067 7.17114 3.97913L8.01028 4.27663C7.99819 4.31073 7.98222 4.35431 7.96182 4.40018L7.14833 4.03839ZM7.1711 3.97925C7.4726 3.12806 8.23148 2.58978 9.13391 2.58978V3.48009C8.61011 3.48009 8.18642 3.77936 8.01032 4.27651L7.1711 3.97925ZM9.13391 2.58978C10.3391 2.58978 11.2585 3.64065 11.2585 4.85604H10.3682C10.3682 4.06309 9.78084 3.48009 9.13391 3.48009V2.58978ZM11.2585 4.85602L11.2586 7.45162L10.3683 7.45165L10.3682 4.85605L11.2585 4.85602ZM11.2586 7.45163C11.2586 7.69575 11.1628 7.92758 10.9903 8.10042L10.3601 7.47146C10.3637 7.46793 10.3654 7.46494 10.3664 7.4626C10.3673 7.46026 10.3683 7.45682 10.3683 7.45163H11.2586ZM10.99 8.10071C10.8172 8.27352 10.5852 8.36946 10.3408 8.36946V7.47914C10.3461 7.47914 10.3495 7.47819 10.3518 7.47725C10.354 7.47631 10.357 7.47464 10.3604 7.47117L10.99 8.10071ZM10.1075 7.54518L10.1076 7.54517L10.5742 8.30341L10.5742 8.30342L10.1075 7.54518ZM9.13392 3.7312C8.71068 3.7312 8.38974 3.95761 8.24701 4.36051L7.4078 4.06321C7.67581 3.30669 8.33165 2.84089 9.13392 2.84089V3.7312ZM8.24666 4.36147C8.23261 4.40085 8.21436 4.45058 8.19129 4.5024L7.37794 4.14031C7.3868 4.12039 7.39592 4.0965 7.40814 4.06225L8.24666 4.36147ZM8.19119 4.50264C8.1708 4.54836 8.15372 4.58697 8.14065 4.61312C8.13254 4.62935 8.11941 4.65437 8.10037 4.68208C8.08107 4.71015 8.062 4.73133 8.06045 4.7331L7.39 4.14731C7.39105 4.14611 7.39071 4.1465 7.39018 4.14711C7.3895 4.1479 7.38777 4.14992 7.3855 4.15269C7.38043 4.15887 7.37379 4.16739 7.36663 4.17781C7.35271 4.19807 7.34492 4.21379 7.34423 4.21517C7.34373 4.21618 7.34404 4.21558 7.34556 4.21234C7.34702 4.2092 7.3491 4.20469 7.35207 4.19811C7.35816 4.18467 7.36624 4.16654 7.37804 4.14008L8.19119 4.50264ZM7.43426 4.77711L7.43253 4.77562L8.01446 4.10181L8.01619 4.1033L7.43426 4.77711ZM8.11683 4.64717C8.04716 4.77863 7.84826 5.12288 7.28173 6.10379L6.51077 5.65851C7.08525 4.66383 7.27052 4.3428 7.33016 4.23026L8.11683 4.64717ZM7.28154 6.10411C7.31716 6.04255 7.32709 5.96829 7.30877 5.89935L6.44833 6.12803C6.40609 5.96911 6.42845 5.80077 6.51095 5.65819L7.28154 6.10411ZM7.3084 5.89796C7.29008 5.82992 7.24506 5.77042 7.18244 5.73427L6.73733 6.50533C6.59432 6.42277 6.49124 6.28744 6.4487 6.12942L7.3084 5.89796ZM7.18161 5.73379C7.13094 5.70469 7.08165 5.70488 7.04762 5.71404C7.01372 5.72317 6.97026 5.74789 6.9405 5.79973L7.71267 6.24291C7.51867 6.58094 7.07528 6.69945 6.73816 6.50581L7.18161 5.73379ZM6.94111 5.79867L7.4177 4.97354L8.18866 5.41883L7.71206 6.24397L6.94111 5.79867ZM7.41798 4.97307C7.54655 4.75108 7.809 4.63999 8.06075 4.70813L7.82815 5.56752C7.96946 5.60576 8.11676 5.54297 8.18838 5.4193L7.41798 4.97307ZM8.05965 4.70783C8.30938 4.77474 8.48266 5.00105 8.48266 5.25911H7.59235C7.59235 5.40359 7.68932 5.53033 7.82925 5.56781L8.05965 4.70783ZM8.48266 5.25911V7.8531H7.59235V5.25911H8.48266ZM8.48266 7.8531C8.48266 7.80237 8.46387 7.75626 8.43302 7.72097C8.40222 7.68573 8.34787 7.64935 8.27259 7.6444L8.21412 8.53279C7.83939 8.50813 7.59235 8.18169 7.59235 7.8531H8.48266ZM8.26687 7.64406C8.21428 7.64128 8.15003 7.66054 8.1012 7.70928L8.7302 8.33938C8.58965 8.47968 8.40333 8.54283 8.21985 8.53313L8.26687 7.64406ZM8.10093 7.70956C8.05868 7.7518 8.0352 7.80969 8.0352 7.86772H8.92551C8.92551 8.04453 8.85609 8.21348 8.73047 8.3391L8.10093 7.70956ZM8.0352 7.86772V6.17122H8.92551V7.86772H8.0352ZM8.0352 6.17122C8.0352 5.85599 8.29074 5.60045 8.60597 5.60045V6.49076C8.78245 6.49076 8.92551 6.3477 8.92551 6.17122H8.0352ZM8.60597 5.60045C8.92102 5.60045 9.17675 5.85574 9.17675 6.17122H8.28643C8.28643 6.3478 8.42967 6.49076 8.60597 6.49076V5.60045ZM9.17675 6.17124L9.17667 8.25335L8.28636 8.25332L8.28643 6.1712L9.17675 6.17124ZM9.17667 8.25334C9.17667 8.12956 9.07671 8.0296 8.95293 8.0296V8.91991C8.58501 8.91991 8.28636 8.62127 8.28636 8.25334H9.17667ZM8.95293 8.0296C8.89499 8.0296 8.83739 8.05295 8.79523 8.09503L9.42417 8.72518C9.29847 8.85063 9.12949 8.91991 8.95293 8.91991V8.0296ZM8.79463 8.09563C8.75254 8.13779 8.7292 8.1954 8.7292 8.25334H9.61951C9.61951 8.42989 9.55023 8.59888 9.42477 8.72458L8.79463 8.09563ZM8.7292 8.25334V6.17122H9.61951V8.25334H8.7292ZM8.7292 6.17122C8.7292 5.85618 8.98448 5.60045 9.29997 5.60045V6.49076C9.47656 6.49076 9.61951 6.34751 9.61951 6.17122H8.7292ZM9.29997 5.60045C9.61502 5.60045 9.87075 5.85573 9.87075 6.17122H8.98044C8.98044 6.3478 9.12368 6.49076 9.29997 6.49076V5.60045ZM9.87075 6.17124L9.87067 7.84823L8.98036 7.84819L8.98044 6.1712L9.87075 6.17124ZM9.87067 7.84821V7.86772H8.98036V7.84821H9.87067ZM9.87067 7.86772C9.87067 7.74365 9.77049 7.6439 9.64701 7.6439V8.53421C9.27922 8.53421 8.98036 8.23579 8.98036 7.86772H9.87067ZM9.64701 7.6439C9.58786 7.6439 9.5306 7.66796 9.4896 7.7088L10.118 8.33952C9.99295 8.46406 9.82462 8.53421 9.64701 8.53421V7.6439ZM9.4893 7.70909C9.44672 7.7516 9.42328 7.80967 9.42328 7.86763H10.3136C10.3136 8.04437 10.2442 8.21351 10.1183 8.33923L9.4893 7.70909ZM9.42328 7.86763V6.17113H10.3136V7.86763H9.42328ZM9.42328 6.17113C9.42328 5.85608 9.67857 5.60036 9.99405 5.60036V6.49067C10.1706 6.49067 10.3136 6.34743 10.3136 6.17113H9.42328ZM9.99405 5.60036C10.3091 5.60036 10.5648 5.85564 10.5648 6.17113H9.67452C9.67452 6.34771 9.81776 6.49067 9.99405 6.49067V5.60036ZM10.5648 6.17119L10.5647 7.45175L9.67436 7.45164L9.67452 6.17108L10.5648 6.17119ZM10.5647 7.45169C10.5647 7.32821 10.4649 7.22804 10.3409 7.22804V8.11835C9.9728 8.11835 9.67436 7.81949 9.67436 7.45169H10.5647ZM10.3409 7.22804C10.2825 7.22804 10.2249 7.25168 10.183 7.29347L10.8119 7.92361C10.6867 8.04862 10.518 8.11835 10.3409 8.11835V7.22804ZM10.1827 7.29377C10.1403 7.33616 10.117 7.39401 10.117 7.45169H11.0074C11.0074 7.628 10.9383 7.79723 10.8122 7.92331L10.1827 7.29377ZM10.117 7.45168L10.1171 4.85608L11.0074 4.85611L11.0074 7.45171L10.117 7.45168ZM10.1171 4.8561C10.1171 4.19575 9.63698 3.73123 9.13391 3.73123V2.84092C10.2061 2.84092 11.0074 3.78519 11.0074 4.8561H10.1171ZM8.70589 3.16378L8.70589 3.16375L9.56195 3.40834L9.56194 3.40837L8.70589 3.16378Z" fill="#4CAF4F" mask="url(#path-1-inside-1_212_1413)"/>
<path d="M6.27221 10.3104C6.21259 10.3463 6.13551 10.327 6.09987 10.2674C6.06416 10.2079 6.08351 10.1308 6.1429 10.0951M6.27221 10.3104L7.35746 8.85015C7.46231 8.78714 7.60059 8.812 7.66525 8.90552M6.27221 10.3104L7.72692 9.43772H7.72699L7.72715 9.43765M6.27221 10.3104L7.71242 9.41308L7.72692 9.43725L7.72699 9.43738L7.72715 9.43765M6.1429 10.0951L7.59768 9.22236C7.64849 9.19184 7.68444 9.14346 7.69876 9.08628M6.1429 10.0951L6.15763 10.1196M6.1429 10.0951L6.15765 10.1196M7.69876 9.08628C7.71449 9.02351 7.70253 8.95932 7.66525 8.90552M7.69876 9.08628L7.73466 9.09527L7.61239 9.24687L7.6124 9.24686L7.61241 9.24686L7.66527 9.21515H7.66537L7.7382 9.17145L7.73466 9.09528L7.69876 9.08628ZM7.66525 8.90552L7.6653 8.90549L7.66525 8.90552ZM6.15765 10.1196L6.19073 10.1746L6.20762 10.2027L6.20772 10.2029L6.2576 10.2858C6.30318 10.2584 6.31832 10.1992 6.29087 10.1531L6.15765 10.1196ZM6.15765 10.1196C6.15764 10.1196 6.15764 10.1196 6.15763 10.1196M6.15765 10.1196L6.25749 10.2859L6.25746 10.2859L6.2574 10.2859L6.23011 10.2404L6.23009 10.2404L6.20761 10.2029L6.20751 10.2028L6.15763 10.1196M6.15765 10.1196L6.15763 10.1196M7.72715 9.40384C7.75522 9.38546 7.78091 9.36415 7.80385 9.34037L8.04329 9.21538L8.04331 9.21538L8.05657 9.20846C8.09506 9.18836 8.13387 9.17897 8.17074 9.17897C8.19068 9.17897 8.21124 9.18144 8.23219 9.18663C8.2322 9.18664 8.23221 9.18664 8.23223 9.18664L7.72715 9.40384ZM7.72715 9.40384V9.43765M7.72715 9.40384V9.43765M5.44614 9.19647L5.502 9.22747L5.50201 9.22747L5.61584 9.29065L5.61578 9.29077L5.61567 9.29097L5.60181 9.28325L5.60178 9.28323L5.44612 9.19651L5.44614 9.19647ZM5.44614 9.19647L5.42123 9.18264L5.44621 9.19635L5.44614 9.19647ZM7.22826 8.63475C7.44803 8.50277 7.73081 8.55885 7.87177 8.7625L7.22826 8.63475ZM6.81401 11.4577C6.7783 11.3982 6.79757 11.321 6.85703 11.2853L7.95518 10.6265L8.31182 10.4126L6.81401 11.4577ZM6.51482 10.7147L6.51494 10.7146C6.51488 10.7146 6.51482 10.7147 6.51477 10.7147L6.51482 10.7147ZM4.83674 8.86469C4.85179 8.83758 4.86713 8.80995 4.88276 8.78179L4.85746 8.76846C4.85277 8.77691 4.84103 8.79805 4.82369 8.82929C4.81958 8.8367 4.81514 8.84469 4.81041 8.85321C4.81913 8.85756 4.82793 8.86137 4.83674 8.86469ZM8.44134 11.4371L8.42661 11.4126L8.44134 11.4371ZM4.01662 10.3223L4.01672 10.3222L4.01662 10.3223ZM8.6564 10.3374L8.65646 10.3374L8.6564 10.3374Z" fill="#4CAF4F" stroke="#4CAF4F" stroke-width="0.445155"/>
<path d="M13.9124 10.3057C13.9312 10.3324 13.9515 10.3579 13.9725 10.3832L13.9124 10.3057ZM13.9124 10.3057C13.8927 10.2777 13.8696 10.2446 13.862 10.2335L13.9124 10.3057ZM9.30241 9.97948L9.32692 9.99421L9.30241 9.97948ZM9.30241 9.97948L9.32693 9.99418C9.32747 9.99328 9.32801 9.99239 9.32855 9.99151L9.30241 9.97948ZM10.1943 9.41371L10.1938 9.41341L10.1938 9.41335L10.1943 9.41371ZM11.7478 10.1195C11.7478 10.1195 11.7477 10.1195 11.7477 10.1195L11.7478 10.1195L11.7478 10.1195ZM9.35331 9.20082C9.35333 9.20079 9.35336 9.20075 9.35338 9.20071L9.41661 9.23875L9.41663 9.23876L9.49621 9.28663L9.49622 9.28664L9.51959 9.30069C9.51959 9.30068 9.51959 9.30068 9.5196 9.30067L9.5197 9.30051L9.35331 9.20082ZM11.4054 10.6902L11.4053 10.6905L11.4054 10.6902ZM11.8191 12.557L11.8045 12.5814L11.8191 12.557ZM11.0482 11.2855L11.0483 11.2854L11.0482 11.2855ZM11.0337 11.31C11.0337 11.31 11.0336 11.3099 11.0336 11.3099L11.0337 11.31ZM9.27567 9.5438L9.27544 9.54386L9.27567 9.5438Z" fill="#4CAF4F" stroke="#4CAF4F" stroke-width="0.445155"/>
</svg>
