<svg width="20" height="11" viewBox="0 0 20 11" fill="none" xmlns="http://www.w3.org/2000/svg">
<g clip-path="url(#clip0_212_1128)">
<path d="M19.299 4.26085C19.3009 4.24693 19.3009 4.23285 19.299 4.21893C19.3008 4.20759 19.3008 4.19602 19.299 4.18465L19.1629 3.20554C19.1433 3.0884 19.0908 2.97891 19.0114 2.88933L18.9881 2.86266L18.9453 2.82075L16.5904 0.832046L16.6564 0.896818C16.6024 0.833422 16.5346 0.782714 16.4579 0.748429C16.3812 0.714143 16.2977 0.697152 16.2134 0.698708H15.4984C15.3821 0.696449 15.2685 0.732691 15.1758 0.801573C15.0785 0.733106 14.9614 0.69705 14.8416 0.698708H14.1266C14.0328 0.697216 13.9403 0.720034 13.8584 0.764857C13.7765 0.80968 13.7082 0.874917 13.6603 0.953961C13.5864 1.06686 13.5587 1.20288 13.5826 1.33494L13.6719 1.95212C13.6127 1.91921 13.5457 1.90214 13.4776 1.9026H10.0151C9.89092 1.90336 9.76955 1.93906 9.66539 2.00546C9.56467 2.06726 9.48383 2.15576 9.43223 2.26071L9.16409 2.03594C9.05855 1.94021 8.91925 1.88832 8.77549 1.89117H3.34276C3.21809 1.89339 3.09619 1.92754 2.98914 1.99022C2.84268 2.07426 2.73535 2.21091 2.68991 2.3712L0.964492 8.02871C0.932254 8.12194 0.929082 8.22247 0.955384 8.31748C0.981686 8.41245 1.03627 8.49764 1.11216 8.56209C1.13194 8.57852 1.1527 8.59379 1.17434 8.60779C1.17434 8.60779 1.13936 8.58493 1.11993 8.5659L3.4749 10.5584C3.57452 10.6483 3.70477 10.6986 3.84017 10.6994H9.31566C9.4407 10.6962 9.56269 10.6607 9.66929 10.5965C9.72958 10.5642 9.78352 10.5216 9.82861 10.4708L9.84805 10.4441L9.87914 10.406L9.90245 10.3641L10.1589 10.5813C10.2571 10.6676 10.3845 10.7151 10.5164 10.7146H16.0036C16.1285 10.7105 16.2502 10.6751 16.3572 10.6117C16.4161 10.5775 16.4698 10.5351 16.5165 10.486L16.536 10.4593L16.567 10.4213C16.5836 10.3971 16.5979 10.3717 16.6098 10.345C16.6225 10.322 16.6329 10.2977 16.6409 10.2727L18.2147 5.10662V5.0609C18.2167 5.04317 18.2167 5.02529 18.2147 5.00756V4.97328C18.2166 4.96192 18.2166 4.95035 18.2147 4.93898C18.2165 4.91489 18.2165 4.8907 18.2147 4.86659H18.7199C18.7639 4.87055 18.8081 4.87055 18.852 4.86659H18.887C18.9155 4.85828 18.9429 4.84676 18.9687 4.83231H19.0075L19.0775 4.77897L19.1085 4.75611L19.1629 4.68753V4.66469L19.2018 4.59991C19.1996 4.58732 19.1996 4.57442 19.2018 4.56183C19.1997 4.55564 19.1997 4.54896 19.2018 4.54277C19.2101 4.52044 19.2166 4.4975 19.2212 4.47419C19.2194 4.46668 19.2194 4.45884 19.2212 4.45133C19.2194 4.43998 19.2194 4.42839 19.2212 4.41705C19.2212 4.41705 19.299 4.26846 19.299 4.26085Z" fill="black"/>
<path d="M8.93478 2.32548C8.95541 2.34377 8.96982 2.36782 8.97607 2.39438C8.98234 2.42095 8.98012 2.44876 8.96977 2.47406L7.24824 8.12776C7.22657 8.18949 7.18221 8.24109 7.12389 8.27254C7.07643 8.30367 7.02149 8.32205 6.96454 8.32588H1.49297C1.44624 8.32368 1.40197 8.3047 1.36861 8.27254C1.34877 8.25454 1.33484 8.23115 1.32861 8.20539C1.32238 8.1796 1.32414 8.15258 1.33364 8.12776L3.05905 2.47406C3.07893 2.41155 3.12189 2.35857 3.17952 2.32548C3.22777 2.29659 3.28244 2.27959 3.33885 2.27595H8.81042C8.85679 2.27639 8.90124 2.2941 8.93478 2.32548ZM6.07852 6.98864L7.10833 3.61318H4.22488L3.19895 6.98864H6.07852ZM14.1577 2.38262C14.1763 2.40389 14.1997 2.42076 14.2259 2.43197C14.2521 2.44318 14.2806 2.44845 14.3092 2.44739H15.0204C15.0475 2.44765 15.0741 2.44114 15.0979 2.42847C15.1217 2.41581 15.1418 2.3974 15.1564 2.375C15.169 2.3575 15.1779 2.3377 15.1826 2.31675C15.1873 2.29581 15.1876 2.27416 15.1836 2.25309L15.0437 1.24731C15.0304 1.20076 15.0064 1.15778 14.9737 1.12159C14.9551 1.10032 14.9317 1.08345 14.9055 1.07224C14.8793 1.06103 14.8508 1.05576 14.8222 1.05682H14.111C14.0839 1.05656 14.0572 1.06307 14.0335 1.07574C14.0097 1.08841 13.9895 1.10681 13.975 1.12921C13.9478 1.18255 13.9362 1.21683 13.9478 1.24731L14.0916 2.25309C14.099 2.30207 14.1221 2.34745 14.1577 2.38262ZM16.4155 1.23969C16.4021 1.19314 16.3782 1.15016 16.3455 1.11397C16.3276 1.09278 16.305 1.07592 16.2794 1.06468C16.2538 1.05345 16.2259 1.04815 16.1978 1.0492H15.4828C15.4562 1.04846 15.4298 1.05479 15.4066 1.06754C15.3833 1.08028 15.364 1.09896 15.3507 1.12159C15.3248 1.15539 15.3136 1.19784 15.3196 1.23969L15.4634 2.24547C15.4724 2.29393 15.4953 2.33886 15.5294 2.375C15.5484 2.39586 15.5718 2.41244 15.598 2.42362C15.6242 2.4348 15.6525 2.4403 15.681 2.43977H16.396C16.4226 2.44011 16.4488 2.43361 16.472 2.4209C16.4952 2.4082 16.5146 2.38975 16.5282 2.36739C16.5417 2.35034 16.5511 2.33054 16.5558 2.30945C16.5606 2.28835 16.5604 2.26649 16.5554 2.24547L16.4155 1.23969ZM13.532 2.7636L13.462 2.26833H10.0151C9.96099 2.27125 9.90864 2.28836 9.86355 2.31786C9.83493 2.33316 9.81001 2.35437 9.79055 2.38002C9.77112 2.40567 9.75758 2.43515 9.75087 2.46644L9.46329 3.41126C9.45181 3.43487 9.44789 3.46136 9.45204 3.4872C9.45623 3.51304 9.46826 3.53703 9.4866 3.55604C9.51937 3.58623 9.56214 3.60384 9.60708 3.60557H13.7963L12.7665 6.98103H8.58892C8.53506 6.98223 8.4826 6.99806 8.43738 7.02673C8.38242 7.06096 8.34228 7.11387 8.32468 7.17532L8.03322 8.12015C8.02371 8.14439 8.02121 8.17073 8.026 8.19627C8.03082 8.22184 8.04271 8.24558 8.06041 8.26491C8.09216 8.29713 8.13526 8.31621 8.18089 8.31824H13.668C13.7248 8.31346 13.7795 8.29516 13.8273 8.26491C13.8847 8.23331 13.9278 8.1816 13.9478 8.12015L15.5255 2.95409H13.7496C13.7214 2.95463 13.6935 2.94951 13.6674 2.93902C13.6413 2.92854 13.6177 2.91291 13.5981 2.89313C13.5659 2.85858 13.5432 2.81666 13.532 2.77122V2.7636Z" fill="white"/>
</g>
<defs>
<clipPath id="clip0_212_1128">
<rect width="18.3627" height="10.016" fill="white" transform="translate(0.937744 0.698608)"/>
</clipPath>
</defs>
</svg>
